<svg width="530" height="75" viewBox="0 0 530 75" fill="none" xmlns="http://www.w3.org/2000/svg">
<path d="M134.704 23.579C134.704 19.951 137.194 17.534 140.68 17.534C144.165 17.534 146.656 19.951 146.656 23.579V68.623C146.656 72.251 144.165 74.67 140.68 74.67C137.194 74.67 134.704 72.251 134.704 68.623V23.579ZM147.402 7.17896C147.402 10.58 144.414 13.451 140.68 13.451C137.11 13.451 133.957 10.504 133.957 7.17896C133.957 4.08196 137.11 1.20996 140.68 1.20996C144.248 1.20996 147.402 4.00396 147.402 7.17896Z" fill="#231F20"/>
<path d="M160.184 38.1661C160.184 43.3811 163.172 49.1251 169.645 49.1251C176.118 49.1251 179.106 43.3811 179.106 38.1661C179.106 32.9521 176.202 27.0561 169.645 27.0561C163.088 27.0561 160.184 32.9521 160.184 38.1661ZM191.058 38.1661C191.058 49.5021 182.509 59.1001 169.645 59.1001C156.781 59.1001 148.233 49.5021 148.233 38.1661C148.233 27.1321 157.029 17.0801 169.645 17.0801C182.261 17.0801 191.058 27.1321 191.058 38.1661Z" fill="#231F20"/>
<path d="M224.508 34.4621C223.844 29.7021 220.524 26.1501 214.963 26.1501C209.651 26.1501 206.083 29.8521 205.501 34.4621H224.508ZM205.751 41.7181C206.581 47.0841 211.479 49.5791 217.039 49.5791C223.18 49.5791 227.413 45.1951 230.567 45.1951C233.139 45.1951 235.463 47.5381 235.463 49.8801C235.463 54.5661 224.84 59.1001 215.959 59.1001C202.513 59.1001 193.551 50.1831 193.551 38.1661C193.551 27.1311 202.348 17.0791 214.963 17.0791C227.911 17.0791 236.459 27.8121 236.459 36.8801C236.459 40.1311 234.883 41.7181 231.231 41.7181H205.751Z" fill="#231F20"/>
<path d="M239.034 6.04498C239.034 2.41698 241.523 0 245.009 0C248.495 0 250.986 2.41698 250.986 6.04498V31.44L264.098 19.876C266.007 18.215 267.917 17.533 269.494 17.533C272.482 17.533 274.557 20.027 274.557 22.447C274.557 24.032 273.975 25.319 272.233 26.753L261.61 35.371L275.635 50.335C276.714 51.467 277.13 52.752 277.13 53.963C277.13 56.835 274.639 59.1 271.486 59.1C269.327 59.1 267.667 57.892 265.758 55.776L251.151 39.376H250.986V52.601C250.986 56.229 248.495 58.647 245.009 58.647C241.523 58.647 239.034 56.229 239.034 52.601V6.04498Z" fill="#231F20"/>
<path d="M287.423 38.1661C287.423 43.3811 290.411 49.1251 296.886 49.1251C303.359 49.1251 306.346 43.3811 306.346 38.1661C306.346 32.9521 303.442 27.0561 296.886 27.0561C290.329 27.0561 287.423 32.9521 287.423 38.1661ZM318.298 38.1661C318.298 49.5021 309.75 59.1001 296.886 59.1001C284.021 59.1001 275.473 49.5021 275.473 38.1661C275.473 27.1321 284.27 17.0801 296.886 17.0801C309.499 17.0801 318.298 27.1321 318.298 38.1661Z" fill="#231F20"/>
<path d="M341.2 27.4801C335.531 27.4801 332.736 33.4511 332.736 38.5891C332.736 43.6521 335.531 49.5481 341.2 49.5481C347.172 49.5481 349.741 43.5011 349.741 38.2121C349.741 32.9201 347.02 27.4801 341.2 27.4801ZM360.624 53.0241C360.624 56.6521 358.356 59.0711 355.181 59.0711C352.159 59.0711 350.421 57.4071 349.741 54.5361C347.7 57.8601 343.468 59.5241 339.765 59.5241C328.805 59.5241 321.853 49.3211 321.853 39.0431C321.853 28.4611 327.672 17.5041 339.385 17.5041C343.167 17.5041 346.869 18.7871 349.741 21.2831V6.46808C349.741 2.84108 352.007 0.423096 355.181 0.423096C358.356 0.423096 360.624 2.84108 360.624 6.46808V53.0241Z" fill="#58B7DE"/>
<path d="M373.096 38.5892C373.096 43.8032 375.817 49.5482 381.713 49.5482C387.609 49.5482 390.328 43.8032 390.328 38.5892C390.328 33.3752 387.684 27.4802 381.713 27.4802C375.741 27.4802 373.096 33.3752 373.096 38.5892ZM401.213 38.5892C401.213 49.9252 393.427 59.5242 381.713 59.5242C369.997 59.5242 362.213 49.9252 362.213 38.5892C362.213 27.5552 370.224 17.5042 381.713 17.5042C393.2 17.5042 401.213 27.5552 401.213 38.5892Z" fill="#58B7DE"/>
<path d="M406.958 27.933H404.54C401.594 27.933 399.778 26.1191 399.778 23.1721C399.778 20.4511 401.819 18.4091 404.54 18.4091H406.958V11.9091C406.958 8.28306 409.226 5.86401 412.4 5.86401C415.575 5.86401 417.84 8.28306 417.84 11.9091V18.4091H420.939C423.736 18.4091 426.155 19.6931 426.155 23.1721C426.155 26.5721 423.736 27.933 420.939 27.933H417.84V53.024C417.84 56.652 415.575 59.072 412.4 59.072C409.226 59.072 406.958 56.652 406.958 53.024V27.933Z" fill="#58B7DE"/>
<path d="M428.197 24.0021C428.197 20.3741 430.465 17.9572 433.64 17.9572C436.437 17.9572 438.249 19.4692 438.627 21.9622C440.744 19.0142 443.995 17.5032 449.132 17.5032C457.673 17.5032 464.023 22.9432 464.023 32.1652V53.0251C464.023 56.6511 461.755 59.0712 458.58 59.0712C455.405 59.0712 453.137 56.6511 453.137 53.0251V34.0541C453.137 28.9901 449.963 26.5732 446.033 26.5732C441.575 26.5732 439.08 29.8221 439.08 34.0541V53.0251C439.08 56.6511 436.812 59.0712 433.64 59.0712C430.465 59.0712 428.197 56.6511 428.197 53.0251V24.0021Z" fill="#58B7DE"/>
<path d="M494.559 34.8862C493.955 30.1252 490.931 26.5732 485.866 26.5732C481.031 26.5732 477.781 30.2752 477.25 34.8862H494.559ZM477.478 42.1412C478.234 47.5062 482.693 50.0012 487.757 50.0012C493.349 50.0012 497.202 45.6182 500.075 45.6182C502.419 45.6182 504.535 47.9612 504.535 50.3032C504.535 54.9892 494.862 59.5251 486.775 59.5251C474.531 59.5251 466.366 50.6052 466.366 38.5892C466.366 27.5542 474.379 17.5032 485.866 17.5032C497.655 17.5032 505.442 28.2352 505.442 37.3032C505.442 40.5542 504.005 42.1412 500.679 42.1412H477.478Z" fill="#58B7DE"/>
<path d="M510.432 27.933H508.013C505.068 27.933 503.252 26.1191 503.252 23.1721C503.252 20.4511 505.292 18.4091 508.013 18.4091H510.432V11.9091C510.432 8.28306 512.7 5.86401 515.874 5.86401C519.046 5.86401 521.314 8.28306 521.314 11.9091V18.4091H524.413C527.21 18.4091 529.626 19.6931 529.626 23.1721C529.626 26.5721 527.21 27.933 524.413 27.933H521.314V53.024C521.314 56.652 519.046 59.072 515.874 59.072C512.7 59.072 510.432 56.652 510.432 53.024V27.933Z" fill="#58B7DE"/>
<path d="M21.604 3.7981C27.08 3.7981 31.593 7.80812 31.593 12.8961C31.593 17.9741 27.08 21.9881 21.604 21.9881C16.128 21.9881 11.617 17.9741 11.617 12.8961C11.617 7.80812 16.128 3.7981 21.604 3.7981Z" fill="#58B7DE"/>
<path d="M82.029 0.22998L51.955 60.381H21.88L51.955 0.22998H82.029Z" fill="#58B7DE"/>
<path d="M119.533 0.22998L89.459 60.381H59.385L89.459 0.22998H119.533Z" fill="#58B7DE"/>
<path d="M9.986 27.144C15.463 27.144 19.974 31.157 19.974 36.235C19.974 41.321 15.463 45.329 9.986 45.329C4.512 45.329 0 41.321 0 36.235C0 31.157 4.512 27.144 9.986 27.144Z" fill="#58B7DE"/>
</svg>
